<mxfile host="app.diagrams.net" agent="Mozilla/5.0 (Windows NT 10.0; Win64; x64) AppleWebKit/537.36 (KHTML, like Gecko) Chrome/131.0.0.0 Safari/537.36" version="25.0.3">
  <diagram name="第 1 页" id="e-PQmXd9gDxlK_6j7caD">
    <mxGraphModel dx="2372" dy="751" grid="1" gridSize="10" guides="1" tooltips="1" connect="1" arrows="1" fold="1" page="1" pageScale="1" pageWidth="827" pageHeight="1169" math="0" shadow="0">
      <root>
        <mxCell id="0" />
        <mxCell id="1" parent="0" />
        <mxCell id="8znnxyxPADqtM8k6MW8M-1" value="" style="endArrow=classic;html=1;rounded=0;exitX=1.003;exitY=0.651;exitDx=0;exitDy=0;exitPerimeter=0;" edge="1" parent="1" source="8znnxyxPADqtM8k6MW8M-3">
          <mxGeometry relative="1" as="geometry">
            <mxPoint x="-320" y="360" as="sourcePoint" />
            <mxPoint x="1382" y="360" as="targetPoint" />
          </mxGeometry>
        </mxCell>
        <mxCell id="8znnxyxPADqtM8k6MW8M-4" value="" style="endArrow=none;dashed=1;html=1;dashPattern=1 3;strokeWidth=2;rounded=0;" edge="1" parent="1">
          <mxGeometry width="50" height="50" relative="1" as="geometry">
            <mxPoint y="360" as="sourcePoint" />
            <mxPoint y="160" as="targetPoint" />
            <Array as="points">
              <mxPoint y="260" />
            </Array>
          </mxGeometry>
        </mxCell>
        <mxCell id="8znnxyxPADqtM8k6MW8M-5" value="21：00" style="text;html=1;align=center;verticalAlign=middle;whiteSpace=wrap;rounded=0;" vertex="1" parent="1">
          <mxGeometry x="20" y="120" width="90" height="30" as="geometry" />
        </mxCell>
        <mxCell id="8znnxyxPADqtM8k6MW8M-6" value="" style="endArrow=none;dashed=1;html=1;dashPattern=1 3;strokeWidth=2;rounded=0;" edge="1" parent="1">
          <mxGeometry width="50" height="50" relative="1" as="geometry">
            <mxPoint x="680" y="358" as="sourcePoint" />
            <mxPoint x="680" y="160" as="targetPoint" />
            <Array as="points">
              <mxPoint x="680" y="260" />
            </Array>
          </mxGeometry>
        </mxCell>
        <mxCell id="8znnxyxPADqtM8k6MW8M-7" value="21：00" style="text;html=1;align=center;verticalAlign=middle;whiteSpace=wrap;rounded=0;" vertex="1" parent="1">
          <mxGeometry x="680" y="120" width="90" height="30" as="geometry" />
        </mxCell>
        <mxCell id="8znnxyxPADqtM8k6MW8M-8" value="day1" style="text;html=1;align=center;verticalAlign=middle;whiteSpace=wrap;rounded=0;" vertex="1" parent="1">
          <mxGeometry x="-10" y="120" width="60" height="30" as="geometry" />
        </mxCell>
        <mxCell id="8znnxyxPADqtM8k6MW8M-10" value="download and merge osc files&lt;div&gt;planet-latest.osm.bz2&amp;nbsp; merge osc file&lt;/div&gt;&lt;div&gt;split&amp;nbsp;&lt;span style=&quot;background-color: initial;&quot;&gt;planet-latest.osm.bz2&lt;/span&gt;&lt;/div&gt;&lt;div&gt;generate region osc file&lt;/div&gt;&lt;div&gt;&lt;span style=&quot;background-color: initial;&quot;&gt;&lt;br&gt;&lt;/span&gt;&lt;/div&gt;&lt;div&gt;&lt;br&gt;&lt;/div&gt;" style="rounded=0;whiteSpace=wrap;html=1;align=center;" vertex="1" parent="1">
          <mxGeometry x="680" y="290" width="270" height="110" as="geometry" />
        </mxCell>
        <mxCell id="8znnxyxPADqtM8k6MW8M-12" value="dayN+1" style="text;html=1;align=center;verticalAlign=middle;whiteSpace=wrap;rounded=0;" vertex="1" parent="1">
          <mxGeometry x="645" y="120" width="60" height="30" as="geometry" />
        </mxCell>
        <mxCell id="8znnxyxPADqtM8k6MW8M-18" value="" style="endArrow=classic;html=1;rounded=0;" edge="1" parent="1">
          <mxGeometry relative="1" as="geometry">
            <mxPoint x="-320" y="360" as="sourcePoint" />
            <mxPoint x="10" y="360" as="targetPoint" />
          </mxGeometry>
        </mxCell>
        <mxCell id="8znnxyxPADqtM8k6MW8M-3" value="download and merge osc files&lt;div&gt;planet-latest.osm.bz2&amp;nbsp; merge osc file&lt;/div&gt;&lt;div&gt;split&amp;nbsp;&lt;span style=&quot;background-color: initial;&quot;&gt;planet-latest.osm.bz2&lt;/span&gt;&lt;/div&gt;&lt;div&gt;generate region osc file&lt;/div&gt;&lt;div&gt;&lt;span style=&quot;background-color: initial;&quot;&gt;&lt;br&gt;&lt;/span&gt;&lt;/div&gt;&lt;div&gt;&lt;br&gt;&lt;/div&gt;" style="rounded=0;whiteSpace=wrap;html=1;align=center;" vertex="1" parent="1">
          <mxGeometry y="290" width="240" height="110" as="geometry" />
        </mxCell>
      </root>
    </mxGraphModel>
  </diagram>
</mxfile>
